# xmcd
#
# Track frame offsets: 
#        150
#        17585
#        34862
#        43420
#        58682
#        69445
#        82695
#        98717
#        112911
#        129319
#        139982
#        148489
#        161104
#        180926
#        199468
#        218244
#        234093
#        247014
#        260924
#        271395
#        289289
#
# Disc length: 3994 seconds
#
# Revision: 0
# Processed by: cddbd v1.5.2PL0 Copyright (c) Steve Scherf et al.
# Submitted via: ExactAudioCopy v0.95a5
#
DISCID=3f0f9815
DTITLE=Various Artist - 125 Irish Hits CD2
DYEAR=2006
DGENRE=Folk
TTITLE0=Frank McCaffrey - My Eilleen
TTITLE1=Francie Brollie - Slievagallion Braes
TTITLE2=Aran Flok - Follow Me Up To Carlow
TTITLE3=Ann Breen - Bunch Of Violets Blue
TTITLE4=Margo - Irish Rover
TTITLE5=Joe Burke - Reel Selection (Accordean)
TTITLE6=Logue and McCool - I Just Want To Dance With You
TTITLE7=Hugo Duncan - Wedding Song
TTITLE8=The Blarney Lads - Finnegan´s Wake
TTITLE9=Hugo Duncan - When Your Old Wedding Ring Was New
TTITLE10=Big Jim Anderson - Wooden Heart
TTITLE11=Philomena Begley - A Village In County Tyrone
TTITLE12=Sean Maguire - March Selection
TTITLE13=John Kerr - Little Pub In London
TTITLE14=Brier - Fields Of Athenry
TTITLE15=John Close - Back Home In Derry
TTITLE16=Ann Breen - If I Had My Life To Live Over
TTITLE17=Brian Coll - Old Loves Never Die
TTITLE18=Declan Hunt - Come Out Ye Black and Tans
TTITLE19=Bridie Gallagher - If Those Lips Could Only Speak
TTITLE20=Charlie McKeown /Drumlister
EXTD=
EXTT0=
EXTT1=
EXTT2=
EXTT3=
EXTT4=
EXTT5=
EXTT6=
EXTT7=
EXTT8=
EXTT9=
EXTT10=
EXTT11=
EXTT12=
EXTT13=
EXTT14=
EXTT15=
EXTT16=
EXTT17=
EXTT18=
EXTT19=
EXTT20=
PLAYORDER=
